<?xml version="1.0" encoding="UTF-8"?>
<svg xmlns="http://www.w3.org/2000/svg" viewBox="0 0 512 512">
  <defs>
    <style>
      .background {
        fill: #c4fcef;
      }

      .icon {
        fill: #4b4453;
      }
    </style>
  </defs>
  <rect class="background" width="512" height="512"/>
  <path class="icon" d="m420.77,139.47c-19.43,0-35.23,15.8-35.23,35.23,0,10.77,4.86,20.42,12.5,26.88l-51.41,101.47c-2.64-.64-5.4-.98-8.24-.98s-5.59.35-8.24.98l-51.41-101.47c7.64-6.47,12.5-16.12,12.5-26.88,0-19.43-15.8-35.23-35.23-35.23s-35.23,15.8-35.23,35.23c0,10.77,4.86,20.42,12.5,26.88l-51.41,101.47c-2.64-.64-5.4-.98-8.24-.98s-5.59.35-8.24.98l-51.41-101.47c7.64-6.47,12.5-16.12,12.5-26.88,0-19.43-15.8-35.23-35.23-35.23s-35.23,15.8-35.23,35.23,15.8,35.23,35.23,35.23c2.84,0,5.59-.35,8.24-.98l51.41,101.47c-7.64,6.47-12.5,16.12-12.5,26.88,0,19.43,15.8,35.23,35.23,35.23s35.23-15.8,35.23-35.23c0-10.77-4.86-20.42-12.5-26.88l51.41-101.47c2.64.64,5.4.98,8.24.98s5.59-.35,8.24-.98l51.41,101.47c-7.64,6.47-12.5,16.12-12.5,26.88,0,19.43,15.8,35.23,35.23,35.23s35.23-15.8,35.23-35.23c0-10.77-4.86-20.42-12.5-26.88l51.41-101.47c2.64.64,5.4.98,8.24.98,19.43,0,35.23-15.8,35.23-35.23s-15.8-35.23-35.23-35.23Zm-348.51,35.23c0-10.46,8.51-18.97,18.97-18.97s18.97,8.51,18.97,18.97-8.51,18.97-18.97,18.97-18.97-8.51-18.97-18.97Zm101.36,181.57c-10.46,0-18.97-8.51-18.97-18.97s8.51-18.97,18.97-18.97,18.97,8.51,18.97,18.97-8.51,18.97-18.97,18.97Zm63.41-181.57c0-10.46,8.51-18.97,18.97-18.97s18.97,8.51,18.97,18.97-8.51,18.97-18.97,18.97-18.97-8.51-18.97-18.97Zm101.35,181.57c-10.46,0-18.97-8.51-18.97-18.97s8.51-18.97,18.97-18.97,18.97,8.51,18.97,18.97-8.51,18.97-18.97,18.97Zm82.38-162.6c-10.46,0-18.97-8.51-18.97-18.97s8.51-18.97,18.97-18.97,18.97,8.51,18.97,18.97-8.51,18.97-18.97,18.97Z"/>
</svg>
